<?xml version="1.0" standalone="no"?>
<!DOCTYPE svg PUBLIC "-//W3C//DTD SVG 20010904//EN"
 "http://www.w3.org/TR/2001/REC-SVG-20010904/DTD/svg10.dtd">
<svg version="1.0" xmlns="http://www.w3.org/2000/svg"
 width="200.000000pt" height="200.000000pt" viewBox="0 0 200.000000 200.000000"
 preserveAspectRatio="xMidYMid meet">
<metadata>
Created by potrace 1.14, written by Peter Selinger 2001-2017
</metadata>
<g transform="translate(0.000000,200.000000) scale(0.100000,-0.100000)"
fill="#000000" stroke="none">
<path d="M750 1726 l0 -275 -237 151 c-131 83 -255 161 -276 175 l-37 23 0
-900 0 -900 800 0 800 0 0 454 0 454 -42 25 c-24 13 -106 57 -183 97 -77 40
-182 95 -232 122 l-93 49 -2 251 -3 251 -90 53 c-49 29 -95 58 -102 63 -7 6
-14 11 -16 11 -6 0 -170 98 -184 110 -7 5 -15 10 -18 10 -3 0 -23 11 -45 25
l-40 25 0 -274z"/>
</g>
</svg>
